<svg id="visual" viewBox="0 0 1200 100" width="1200" height="100" xmlns="http://www.w3.org/2000/svg" xmlns:xlink="http://www.w3.org/1999/xlink" version="1.1"><path d="M0 81L6.5 82.3C13 83.7 26 86.3 38.8 83.2C51.7 80 64.3 71 77.2 69C90 67 103 72 116 65.3C129 58.7 142 40.3 155 31.3C168 22.3 181 22.7 193.8 31.3C206.7 40 219.3 57 232.2 64.3C245 71.7 258 69.3 271 57.3C284 45.3 297 23.7 309.8 19.5C322.7 15.3 335.3 28.7 348.2 40C361 51.3 374 60.7 387 63.5C400 66.3 413 62.7 426 58.3C439 54 452 49 464.8 39.2C477.7 29.3 490.3 14.7 503.2 21.3C516 28 529 56 542 62.3C555 68.7 568 53.3 580.8 54.5C593.7 55.7 606.3 73.3 619.2 68.2C632 63 645 35 658 30.8C671 26.7 684 46.3 696.8 53C709.7 59.7 722.3 53.3 735.2 51.2C748 49 761 51 774 47.2C787 43.3 800 33.7 813 38.7C826 43.7 839 63.3 851.8 72.2C864.7 81 877.3 79 890.2 66.7C903 54.3 916 31.7 929 19.8C942 8 955 7 967.8 13.5C980.7 20 993.3 34 1006.2 46.2C1019 58.3 1032 68.7 1045 64.7C1058 60.7 1071 42.3 1084 37.7C1097 33 1110 42 1122.8 50.8C1135.7 59.7 1148.3 68.3 1161.2 75.8C1174 83.3 1187 89.7 1193.5 92.8L1200 96L1200 0L1193.5 0C1187 0 1174 0 1161.2 0C1148.3 0 1135.7 0 1122.8 0C1110 0 1097 0 1084 0C1071 0 1058 0 1045 0C1032 0 1019 0 1006.2 0C993.3 0 980.7 0 967.8 0C955 0 942 0 929 0C916 0 903 0 890.2 0C877.3 0 864.7 0 851.8 0C839 0 826 0 813 0C800 0 787 0 774 0C761 0 748 0 735.2 0C722.3 0 709.7 0 696.8 0C684 0 671 0 658 0C645 0 632 0 619.2 0C606.3 0 593.7 0 580.8 0C568 0 555 0 542 0C529 0 516 0 503.2 0C490.3 0 477.7 0 464.8 0C452 0 439 0 426 0C413 0 400 0 387 0C374 0 361 0 348.2 0C335.3 0 322.7 0 309.8 0C297 0 284 0 271 0C258 0 245 0 232.2 0C219.3 0 206.7 0 193.8 0C181 0 168 0 155 0C142 0 129 0 116 0C103 0 90 0 77.2 0C64.3 0 51.7 0 38.8 0C26 0 13 0 6.5 0L0 0Z" fill="#FAF9F6" stroke-linecap="round" stroke-linejoin="miter"></path></svg>